# xmcd CD database file
#
# Track frame offsets:
#	150
#	21344
#	36596
#	55010
#	64346
#	72399
#
# Disc length: 1195 seconds
#
# Revision: 0
# Processed by: cddbd v1.5.1PL0 Copyright (c) Steve Scherf et al.
# Submitted via: CDex 1.51
#
DISCID=5804a906
DTITLE=Mala Vita - Como un arco tenso
DYEAR=2004
DGENRE=Salsa
TTITLE0=Cancion de dolor
TTITLE1=Te vas si mueves
TTITLE2=Coconut man
TTITLE3=Bella ciao
TTITLE4=C est dommage
TTITLE5=il cuore de mediterrano
EXTD=YEAR: 2004
EXTT0=
EXTT1=
EXTT2=
EXTT3=
EXTT4=
EXTT5=
PLAYORDER=
